<svg width="80" height="80" viewBox="0 0 80 80" fill="none" xmlns="http://www.w3.org/2000/svg">
<rect width="80" height="80" rx="30" fill="#F8FAFF"/>
<path fill-rule="evenodd" clip-rule="evenodd" d="M31.7661 42.3265L40.235 32.5547L31.7661 37.5591V23L26.1201 30.166L25.2681 41.3954L17 46.2352L25.0628 44.1009L24.1265 56.4413H44.6177L44.631 56.4363C46.7489 56.4556 50.3384 56.4265 55.2196 56.1684C63.4714 55.7319 63.9057 51.3673 63.9057 50.7127C63.9057 50.5888 63.9092 50.4574 63.9129 50.3183C63.9504 48.9069 64.0088 46.7091 60.6484 43.7294C56.9568 40.4559 53.9167 39.8012 53.9167 39.8012C53.9167 39.8012 59.7598 38.7878 61.0827 35.8731C63.0183 31.6085 58.9112 29.5445 54.7853 27.5805C50.6594 25.6164 42.1905 23.4341 42.1905 23.4341L42.3713 50.8653L31.7661 49.9268V42.3265ZM53.9939 51.8938L46.5347 51.2337V40.8922C46.5347 40.8922 48.7585 41.3127 50.5924 41.9833C54.1727 43.2927 57.9917 45.9115 58.2303 47.8755C58.469 49.8396 57.2756 50.9307 55.8435 51.5854C55.5124 51.7367 54.8369 51.8339 53.9939 51.8938ZM46.5347 28.2351C46.5347 28.2351 49.2093 29.092 50.8777 29.7627C54.135 31.072 55.8722 32.3814 56.5237 33.909C57.1751 35.4366 55.6551 36.0913 54.135 36.5278C52.615 36.9642 46.5347 37.1824 46.5347 37.1824V28.2351Z" fill="black"/>
<path d="M40.235 32.5547L40.6128 32.8821L39.9806 32.1242L40.235 32.5547ZM31.7661 42.3265L31.3882 41.999L31.2661 42.14V42.3265H31.7661ZM31.7661 37.5591H31.2661V38.4353L32.0204 37.9896L31.7661 37.5591ZM31.7661 23H32.2661V21.5575L31.3733 22.6906L31.7661 23ZM26.1201 30.166L25.7274 29.8566L25.6331 29.9762L25.6215 30.1282L26.1201 30.166ZM25.2681 41.3954L25.5207 41.8269L25.7468 41.6945L25.7667 41.4332L25.2681 41.3954ZM17 46.2352L16.7474 45.8037L17.1279 46.7186L17 46.2352ZM25.0628 44.1009L25.5614 44.1387L25.6146 43.4376L24.9349 43.6176L25.0628 44.1009ZM24.1265 56.4413L23.6279 56.4034L23.5871 56.9413H24.1265V56.4413ZM44.6177 56.4413V56.9413H44.7076L44.7918 56.91L44.6177 56.4413ZM44.631 56.4363L44.6355 55.9364L44.5433 55.9355L44.4569 55.9676L44.631 56.4363ZM55.2196 56.1684L55.1932 55.6691L55.2196 56.1684ZM63.9129 50.3183L64.4127 50.3316V50.3316L63.9129 50.3183ZM60.6484 43.7294L60.3167 44.1035L60.6484 43.7294ZM53.9167 39.8012L53.8312 39.3086L53.8114 40.29L53.9167 39.8012ZM61.0827 35.8731L61.538 36.0798L61.0827 35.8731ZM54.7853 27.5805L54.5704 28.0319L54.7853 27.5805ZM42.1905 23.4341L42.3153 22.9499L41.6862 22.7878L41.6905 23.4374L42.1905 23.4341ZM42.3713 50.8653L42.3272 51.3634L42.8749 51.4118L42.8713 50.862L42.3713 50.8653ZM31.7661 49.9268H31.2661V50.3845L31.722 50.4249L31.7661 49.9268ZM46.5347 51.2337H46.0347V51.6915L46.4906 51.7318L46.5347 51.2337ZM53.9939 51.8938L53.9498 52.3919L53.9896 52.3954L54.0294 52.3926L53.9939 51.8938ZM46.5347 40.8922L46.6276 40.4009L46.0347 40.2888V40.8922H46.5347ZM50.5924 41.9833L50.4206 42.4529L50.5924 41.9833ZM58.2303 47.8755L57.734 47.9358L58.2303 47.8755ZM55.8435 51.5854L55.6356 51.1307L55.8435 51.5854ZM50.8777 29.7627L50.6913 30.2266V30.2266L50.8777 29.7627ZM46.5347 28.2351L46.6873 27.7589L46.0347 27.5498V28.2351H46.5347ZM56.5237 33.909L56.9836 33.7129L56.5237 33.909ZM54.135 36.5278L54.273 37.0083V37.0083L54.135 36.5278ZM46.5347 37.1824H46.0347V37.7007L46.5527 37.6821L46.5347 37.1824ZM39.8571 32.2272L31.3882 41.999L32.1439 42.654L40.6128 32.8821L39.8571 32.2272ZM32.0204 37.9896L40.4893 32.9851L39.9806 32.1242L31.5117 37.1287L32.0204 37.9896ZM31.2661 23V37.5591H32.2661V23H31.2661ZM26.5129 30.4754L32.1588 23.3094L31.3733 22.6906L25.7274 29.8566L26.5129 30.4754ZM25.7667 41.4332L26.6187 30.2038L25.6215 30.1282L24.7695 41.3575L25.7667 41.4332ZM17.2526 46.6667L25.5207 41.8269L25.0155 40.9639L16.7474 45.8037L17.2526 46.6667ZM24.9349 43.6176L16.8721 45.7519L17.1279 46.7186L25.1908 44.5843L24.9349 43.6176ZM24.6251 56.4791L25.5614 44.1387L24.5642 44.0631L23.6279 56.4034L24.6251 56.4791ZM44.6177 55.9413H24.1265V56.9413H44.6177V55.9413ZM44.4569 55.9676L44.4436 55.9726L44.7918 56.91L44.8051 56.905L44.4569 55.9676ZM55.1932 55.6691C50.3229 55.9267 46.7438 55.9556 44.6355 55.9364L44.6264 56.9363C46.7541 56.9557 50.3539 56.9264 55.246 56.6677L55.1932 55.6691ZM63.4057 50.7127C63.4057 50.9534 63.3212 52.0725 62.2907 53.1821C61.2649 54.2866 59.2331 55.4554 55.1932 55.6691L55.246 56.6677C59.4579 56.4449 61.7691 55.2131 63.0234 53.8626C64.273 52.5171 64.4057 51.1266 64.4057 50.7127H63.4057ZM63.413 50.305C63.4094 50.4426 63.4057 50.581 63.4057 50.7127H64.4057C64.4057 50.5967 64.4089 50.4722 64.4127 50.3316L63.413 50.305ZM60.3167 44.1035C61.9494 45.5512 62.7189 46.7795 63.0851 47.7834C63.4512 48.7864 63.4316 49.6067 63.413 50.305L64.4127 50.3316C64.4316 49.6186 64.4601 48.6342 64.0246 47.4406C63.5893 46.2478 62.7078 44.8872 60.9801 43.3552L60.3167 44.1035ZM53.9167 39.8012C53.8114 40.29 53.8113 40.29 53.8111 40.29C53.8111 40.29 53.8109 40.2899 53.8108 40.2899C53.8107 40.2899 53.8106 40.2898 53.8105 40.2898C53.8104 40.2898 53.8104 40.2898 53.8107 40.2899C53.8111 40.29 53.8123 40.2902 53.8143 40.2907C53.8181 40.2916 53.8248 40.2931 53.8344 40.2954C53.8534 40.3 53.8837 40.3076 53.9247 40.3186C54.0066 40.3406 54.131 40.3764 54.2934 40.4297C54.6182 40.5364 55.0947 40.7132 55.6859 40.9904C56.868 41.5449 58.5099 42.5014 60.3167 44.1035L60.9801 43.3552C59.0953 41.6839 57.3713 40.6764 56.1105 40.0851C55.4803 39.7895 54.966 39.598 54.6054 39.4796C54.4251 39.4204 54.2832 39.3795 54.1844 39.3529C54.135 39.3396 54.0964 39.3299 54.0691 39.3234C54.0555 39.3201 54.0447 39.3176 54.0368 39.3158C54.0328 39.3149 54.0296 39.3141 54.0272 39.3136C54.0259 39.3133 54.0249 39.3131 54.024 39.3129C54.0236 39.3128 54.0232 39.3127 54.0228 39.3126C54.0227 39.3126 54.0224 39.3126 54.0224 39.3125C54.0222 39.3125 54.022 39.3124 53.9167 39.8012ZM60.6274 35.6665C60.3482 36.2816 59.8143 36.828 59.1215 37.3046C58.432 37.779 57.6173 38.1622 56.826 38.4628C56.0369 38.7625 55.2855 38.9747 54.7303 39.112C54.4533 39.1805 54.2263 39.23 54.0696 39.2623C53.9912 39.2784 53.9305 39.2902 53.8899 39.2978C53.8697 39.3016 53.8544 39.3044 53.8445 39.3062C53.8396 39.3071 53.836 39.3078 53.8337 39.3082C53.8326 39.3084 53.8319 39.3085 53.8314 39.3086C53.8312 39.3086 53.8311 39.3086 53.8311 39.3086C53.8311 39.3086 53.8311 39.3086 53.8311 39.3086C53.8312 39.3086 53.8312 39.3086 53.9167 39.8012C54.0021 40.2939 54.0023 40.2939 54.0024 40.2938C54.0025 40.2938 54.0027 40.2938 54.0028 40.2938C54.0032 40.2937 54.0036 40.2936 54.0041 40.2935C54.0051 40.2934 54.0064 40.2931 54.0081 40.2928C54.0115 40.2922 54.0163 40.2914 54.0225 40.2903C54.0348 40.288 54.0525 40.2848 54.0753 40.2805C54.121 40.2719 54.1871 40.259 54.2711 40.2417C54.4391 40.2072 54.679 40.1548 54.9704 40.0827C55.5521 39.9389 56.3441 39.7155 57.1811 39.3976C58.016 39.0805 58.9102 38.6638 59.6883 38.1284C60.4632 37.5953 61.1557 36.922 61.538 36.0798L60.6274 35.6665ZM54.5704 28.0319C56.6543 29.0239 58.6263 29.996 59.8543 31.2185C60.458 31.8194 60.8554 32.4564 61.0067 33.1597C61.1572 33.8587 61.0763 34.6775 60.6274 35.6665L61.538 36.0798C62.0569 34.9364 62.1885 33.898 61.9843 32.9493C61.7811 32.0047 61.2567 31.2034 60.5598 30.5097C59.1867 29.143 57.0422 28.1011 55.0002 27.129L54.5704 28.0319ZM42.1905 23.4341C42.0657 23.9183 42.0658 23.9183 42.0658 23.9183C42.0659 23.9183 42.0659 23.9183 42.066 23.9184C42.0663 23.9184 42.0666 23.9185 42.0671 23.9186C42.0681 23.9189 42.0695 23.9193 42.0715 23.9198C42.0755 23.9208 42.0814 23.9224 42.0894 23.9244C42.1053 23.9285 42.129 23.9347 42.1603 23.9429C42.2228 23.9592 42.3152 23.9834 42.4344 24.015C42.6728 24.0782 43.0184 24.1708 43.4461 24.288C44.3017 24.5225 45.4852 24.8555 46.7968 25.2496C49.4298 26.0407 52.5455 27.068 54.5704 28.0319L55.0002 27.129C52.8992 26.1289 49.7175 25.083 47.0846 24.2919C45.7633 23.8949 44.5717 23.5596 43.7104 23.3236C43.2797 23.2055 42.9314 23.1122 42.6906 23.0484C42.5701 23.0165 42.4766 22.9919 42.413 22.9753C42.3812 22.967 42.3569 22.9607 42.3405 22.9564C42.3323 22.9543 42.326 22.9527 42.3218 22.9516C42.3197 22.9511 42.3181 22.9507 42.317 22.9504C42.3165 22.9502 42.316 22.9501 42.3158 22.9501C42.3156 22.95 42.3155 22.95 42.3154 22.95C42.3153 22.9499 42.3153 22.9499 42.1905 23.4341ZM42.8713 50.862L42.6905 23.4308L41.6905 23.4374L41.8713 50.8686L42.8713 50.862ZM31.722 50.4249L42.3272 51.3634L42.4154 50.3672L31.8101 49.4287L31.722 50.4249ZM31.2661 42.3265V49.9268H32.2661V42.3265H31.2661ZM46.4906 51.7318L53.9498 52.3919L54.038 51.3958L46.5788 50.7357L46.4906 51.7318ZM47.0347 51.2337V40.8922H46.0347V51.2337H47.0347ZM46.5347 40.8922C46.4418 41.3835 46.4418 41.3835 46.4418 41.3835C46.4418 41.3835 46.4418 41.3835 46.4418 41.3835C46.4418 41.3835 46.4419 41.3835 46.442 41.3835C46.4421 41.3836 46.4425 41.3836 46.4429 41.3837C46.4438 41.3839 46.4452 41.3841 46.4472 41.3845C46.4511 41.3853 46.457 41.3864 46.465 41.388C46.481 41.391 46.505 41.3957 46.5363 41.402C46.599 41.4144 46.6913 41.4331 46.8079 41.4577C47.0412 41.5068 47.3717 41.5792 47.7589 41.6724C48.5358 41.8594 49.5294 42.127 50.4206 42.4529L50.7641 41.5138C49.8215 41.169 48.7863 40.8911 47.9928 40.7001C47.5948 40.6044 47.2547 40.5298 47.0138 40.4791C46.8933 40.4537 46.7974 40.4343 46.7314 40.4212C46.6984 40.4146 46.6728 40.4096 46.6553 40.4062C46.6465 40.4045 46.6398 40.4032 46.6351 40.4023C46.6328 40.4019 46.631 40.4016 46.6298 40.4013C46.6291 40.4012 46.6286 40.4011 46.6283 40.401C46.6281 40.401 46.628 40.401 46.6278 40.401C46.6278 40.4009 46.6277 40.4009 46.6277 40.4009C46.6277 40.4009 46.6276 40.4009 46.5347 40.8922ZM50.4206 42.4529C52.1693 43.0925 53.9759 44.0524 55.3663 45.0853C56.0616 45.6018 56.6401 46.1271 57.0541 46.6287C57.4743 47.1377 57.6909 47.5809 57.734 47.9358L58.7267 47.8152C58.6505 47.188 58.3002 46.5674 57.8253 45.9921C57.3442 45.4093 56.6994 44.8299 55.9626 44.2825C54.4888 43.1877 52.5957 42.1836 50.7641 41.5138L50.4206 42.4529ZM57.734 47.9358C57.8384 48.7949 57.6306 49.4291 57.2626 49.9226C56.8841 50.4301 56.3102 50.8223 55.6356 51.1307L56.0514 52.0401C56.8089 51.6938 57.5477 51.213 58.0643 50.5204C58.5914 49.8135 58.861 48.9202 58.7267 47.8152L57.734 47.9358ZM55.6356 51.1307C55.5338 51.1772 55.3372 51.2311 55.0314 51.2802C54.7356 51.3277 54.372 51.3657 53.9584 51.3951L54.0294 52.3926C54.4588 52.362 54.8544 52.3215 55.19 52.2676C55.5154 52.2153 55.8221 52.145 56.0514 52.0401L55.6356 51.1307ZM51.0642 29.2988C50.2167 28.9581 49.1203 28.5726 48.2414 28.274C47.8008 28.1242 47.4126 27.9956 47.1346 27.9044C46.9955 27.8587 46.8839 27.8225 46.807 27.7975C46.7685 27.7851 46.7387 27.7755 46.7184 27.7689C46.7083 27.7657 46.7006 27.7632 46.6953 27.7615C46.6927 27.7607 46.6907 27.76 46.6894 27.7596C46.6887 27.7594 46.6882 27.7592 46.6878 27.7591C46.6877 27.759 46.6875 27.759 46.6874 27.759C46.6874 27.759 46.6874 27.7589 46.6873 27.7589C46.6873 27.7589 46.6873 27.7589 46.5347 28.2351C46.3822 28.7112 46.3822 28.7112 46.3822 28.7112C46.3822 28.7112 46.3822 28.7112 46.3822 28.7113C46.3823 28.7113 46.3824 28.7113 46.3826 28.7114C46.3829 28.7115 46.3833 28.7116 46.3839 28.7118C46.3852 28.7122 46.387 28.7128 46.3895 28.7136C46.3945 28.7152 46.402 28.7176 46.4119 28.7208C46.4316 28.7272 46.4609 28.7366 46.4988 28.7489C46.5747 28.7734 46.6851 28.8093 46.8228 28.8545C47.0984 28.9449 47.4831 29.0724 47.9197 29.2208C48.7953 29.5183 49.8703 29.8966 50.6913 30.2266L51.0642 29.2988ZM56.9836 33.7129C56.2476 31.987 54.3366 30.6142 51.0642 29.2988L50.6913 30.2266C53.9335 31.5299 55.4969 32.7759 56.0638 34.1052L56.9836 33.7129ZM54.273 37.0083C55.031 36.7907 55.8863 36.4953 56.4647 36.0109C56.764 35.7602 57.0144 35.4386 57.1225 35.0288C57.2315 34.6157 57.1799 34.1732 56.9836 33.7129L56.0638 34.1052C56.1932 34.4086 56.1959 34.6209 56.1556 34.7738C56.1144 34.93 56.0119 35.0857 55.8226 35.2442C55.4239 35.5782 54.7591 35.8283 53.997 36.0472L54.273 37.0083ZM46.5347 37.1824C46.5527 37.6821 46.5527 37.6821 46.5528 37.6821C46.5528 37.6821 46.5529 37.6821 46.553 37.6821C46.5532 37.6821 46.5535 37.6821 46.5539 37.6821C46.5547 37.682 46.5558 37.682 46.5573 37.6819C46.5603 37.6818 46.5648 37.6817 46.5706 37.6815C46.5824 37.681 46.5997 37.6804 46.6223 37.6795C46.6676 37.6778 46.7341 37.6752 46.8191 37.6718C46.9891 37.665 47.2335 37.6547 47.5315 37.641C48.1272 37.6136 48.9378 37.5726 49.7967 37.5178C50.6548 37.463 51.5648 37.3943 52.3581 37.3115C53.1385 37.23 53.845 37.1312 54.273 37.0083L53.997 36.0472C53.665 36.1425 53.0415 36.2347 52.2543 36.3169C51.48 36.3977 50.5849 36.4654 49.733 36.5198C48.8818 36.5741 48.0774 36.6149 47.4856 36.642C47.1897 36.6556 46.9472 36.6658 46.7788 36.6726C46.6946 36.676 46.6289 36.6786 46.5844 36.6802C46.5621 36.6811 46.5451 36.6817 46.5338 36.6821C46.5281 36.6824 46.5238 36.6825 46.5209 36.6826C46.5195 36.6827 46.5185 36.6827 46.5178 36.6827C46.5174 36.6827 46.5172 36.6827 46.517 36.6828C46.5169 36.6828 46.5169 36.6828 46.5168 36.6828C46.5168 36.6828 46.5168 36.6828 46.5347 37.1824ZM46.0347 28.2351V37.1824H47.0347V28.2351H46.0347Z" fill="black"/>
</svg>
