<svg width="40" height="40" viewBox="0 0 40 40" fill="none" xmlns="http://www.w3.org/2000/svg">
<path d="M20.0007 3.33398C17.812 3.33398 15.6447 3.76508 13.6226 4.60266C11.6005 5.44024 9.76318 6.6679 8.21554 8.21554C5.08993 11.3411 3.33398 15.5804 3.33398 20.0007C3.33398 27.3673 8.11732 33.6173 14.734 35.834C15.5673 35.9673 15.834 35.4507 15.834 35.0007C15.834 34.6173 15.834 33.5673 15.834 32.184C11.2173 33.184 10.234 29.9507 10.234 29.9507C9.46732 28.0173 8.38398 27.5007 8.38398 27.5007C6.86732 26.4673 8.50065 26.5007 8.50065 26.5007C10.1673 26.6173 11.0507 28.2173 11.0507 28.2173C12.5007 30.7507 14.9507 30.0007 15.9007 29.6007C16.0507 28.5173 16.484 27.784 16.9507 27.3673C13.2507 26.9507 9.36732 25.5173 9.36732 19.1673C9.36732 17.3173 10.0007 15.834 11.084 14.6507C10.9173 14.234 10.334 12.5007 11.2507 10.2507C11.2507 10.2507 12.6507 9.80065 15.834 11.9507C17.1507 11.584 18.584 11.4007 20.0007 11.4007C21.4173 11.4007 22.8507 11.584 24.1673 11.9507C27.3507 9.80065 28.7507 10.2507 28.7507 10.2507C29.6673 12.5007 29.084 14.234 28.9173 14.6507C30.0007 15.834 30.634 17.3173 30.634 19.1673C30.634 25.534 26.734 26.934 23.0173 27.3507C23.6173 27.8673 24.1673 28.884 24.1673 30.434C24.1673 32.6673 24.1673 34.4673 24.1673 35.0007C24.1673 35.4507 24.434 35.984 25.284 35.834C31.9007 33.6007 36.6673 27.3673 36.6673 20.0007C36.6673 17.812 36.2362 15.6447 35.3986 13.6226C34.5611 11.6005 33.3334 9.76318 31.7858 8.21554C30.2381 6.6679 28.4008 5.44024 26.3787 4.60266C24.3566 3.76508 22.1893 3.33398 20.0007 3.33398Z" fill="#AFB8A8"/>
</svg>
