<svg width="40" height="40" viewBox="0 0 40 40" fill="none" xmlns="http://www.w3.org/2000/svg">
<path d="M13.0007 3.33301H27.0007C32.334 3.33301 36.6673 7.66634 36.6673 12.9997V26.9997C36.6673 29.5634 35.6489 32.0222 33.836 33.835C32.0232 35.6479 29.5644 36.6663 27.0007 36.6663H13.0007C7.66732 36.6663 3.33398 32.333 3.33398 26.9997V12.9997C3.33398 10.4359 4.35243 7.97716 6.16529 6.16431C7.97814 4.35146 10.4369 3.33301 13.0007 3.33301ZM12.6673 6.66634C11.076 6.66634 9.5499 7.29848 8.42468 8.4237C7.29946 9.54892 6.66732 11.075 6.66732 12.6663V27.333C6.66732 30.6497 9.35065 33.333 12.6673 33.333H27.334C28.9253 33.333 30.4514 32.7009 31.5766 31.5756C32.7018 30.4504 33.334 28.9243 33.334 27.333V12.6663C33.334 9.34967 30.6507 6.66634 27.334 6.66634H12.6673ZM28.7507 9.16634C29.3032 9.16634 29.8331 9.38583 30.2238 9.77654C30.6145 10.1672 30.834 10.6971 30.834 11.2497C30.834 11.8022 30.6145 12.3321 30.2238 12.7228C29.8331 13.1135 29.3032 13.333 28.7507 13.333C28.1981 13.333 27.6682 13.1135 27.2775 12.7228C26.8868 12.3321 26.6673 11.8022 26.6673 11.2497C26.6673 10.6971 26.8868 10.1672 27.2775 9.77654C27.6682 9.38583 28.1981 9.16634 28.7507 9.16634ZM20.0007 11.6663C22.2108 11.6663 24.3304 12.5443 25.8932 14.1071C27.456 15.6699 28.334 17.7895 28.334 19.9997C28.334 22.2098 27.456 24.3294 25.8932 25.8922C24.3304 27.455 22.2108 28.333 20.0007 28.333C17.7905 28.333 15.6709 27.455 14.1081 25.8922C12.5453 24.3294 11.6673 22.2098 11.6673 19.9997C11.6673 17.7895 12.5453 15.6699 14.1081 14.1071C15.6709 12.5443 17.7905 11.6663 20.0007 11.6663ZM20.0007 14.9997C18.6746 14.9997 17.4028 15.5265 16.4651 16.4641C15.5274 17.4018 15.0007 18.6736 15.0007 19.9997C15.0007 21.3258 15.5274 22.5975 16.4651 23.5352C17.4028 24.4729 18.6746 24.9997 20.0007 24.9997C21.3267 24.9997 22.5985 24.4729 23.5362 23.5352C24.4739 22.5975 25.0007 21.3258 25.0007 19.9997C25.0007 18.6736 24.4739 17.4018 23.5362 16.4641C22.5985 15.5265 21.3267 14.9997 20.0007 14.9997Z" fill="#AFB8A8"/>
</svg>
